<?xml version="1.0" standalone="no"?>
<!DOCTYPE svg PUBLIC "-//W3C//DTD SVG 20010904//EN"
 "http://www.w3.org/TR/2001/REC-SVG-20010904/DTD/svg10.dtd">
<svg version="1.0" xmlns="http://www.w3.org/2000/svg"
 width="534.000000pt" height="534.000000pt" viewBox="0 0 534.000000 534.000000"
 preserveAspectRatio="xMidYMid meet">
<metadata>
Created by potrace 1.14, written by Peter Selinger 2001-2017
</metadata>
<g transform="translate(0.000000,534.000000) scale(0.100000,-0.100000)"
fill="#000000" stroke="none">
<path d="M2628 5235 c-2 -2 -19 -5 -39 -8 -110 -14 -265 -137 -364 -287 -130
-198 -277 -536 -306 -705 -6 -38 -13 -71 -14 -73 -1 -1 -38 11 -81 29 -123 49
-302 106 -384 123 -294 61 -526 23 -652 -105 -20 -20 -52 -45 -72 -54 -20 -10
-44 -30 -53 -46 l-17 -28 -35 26 c-20 15 -41 32 -48 38 -6 5 -24 20 -40 32
-15 12 -46 38 -68 58 -46 42 -74 55 -118 55 -69 0 -119 -57 -131 -150 -3 -25
-8 -54 -10 -65 -16 -80 -27 -181 -22 -200 15 -61 79 -102 151 -96 45 4 192 40
249 62 28 10 52 19 52 19 1 0 4 -10 8 -23 3 -13 19 -38 36 -55 16 -18 30 -38
30 -47 0 -31 55 -129 101 -178 111 -121 303 -192 584 -214 99 -7 375 -7 416 0
l26 5 0 -146 c0 -81 3 -169 6 -197 4 -27 9 -70 13 -95 9 -70 54 -248 81 -325
32 -89 93 -208 135 -264 l33 -43 -52 -54 c-184 -191 -443 -764 -478 -1059 -4
-27 -8 -51 -10 -54 -4 -8 -17 -163 -19 -235 -7 -276 71 -513 199 -602 46 -32
115 -51 153 -43 28 6 35 4 42 -15 16 -43 78 -84 159 -106 265 -71 646 208 851
624 116 237 159 441 155 738 -1 100 2 148 9 148 250 7 342 13 406 26 l26 5 0
-93 c1 -136 16 -304 39 -428 3 -14 7 -41 10 -60 3 -19 10 -49 16 -66 5 -17 11
-40 13 -51 9 -46 49 -163 83 -243 110 -259 272 -403 443 -394 58 3 135 30 177
61 l32 24 21 -41 c46 -90 114 -132 219 -135 184 -6 337 111 424 325 63 155 82
269 82 490 0 167 -5 221 -29 346 -63 322 -268 652 -523 847 -29 21 -53 41 -53
44 0 2 19 29 41 59 23 30 50 69 60 87 32 54 125 249 144 302 10 28 21 55 25
60 9 13 67 200 75 240 41 210 17 349 -79 447 l-36 36 91 199 c128 279 146 322
178 427 24 77 28 151 9 159 -53 20 -142 -100 -268 -362 -30 -63 -80 -164 -110
-225 l-55 -111 -35 2 c-201 13 -281 -16 -410 -146 -42 -42 -97 -108 -123 -148
-97 -149 -195 -375 -232 -533 -27 -116 -22 -110 -80 -94 -27 7 -70 16 -95 20
-25 3 -47 8 -50 9 -19 11 -175 20 -350 20 -199 0 -338 -8 -430 -25 -25 -5 -46
-8 -46 -7 -1 1 -5 49 -9 107 -3 57 -8 107 -10 110 -1 3 -6 28 -9 55 -4 28 -12
70 -18 95 -5 25 -12 59 -15 75 -19 114 -133 386 -186 442 -11 13 -19 24 -16
26 2 2 31 9 64 16 135 29 252 97 370 215 312 315 454 847 303 1138 -50 96
-177 182 -261 177 -33 -2 -48 3 -69 22 -23 22 -73 44 -128 56 -23 5 -99 11
-102 8z"/>
</g>
</svg>
